<?xml version="1.0" standalone="no"?><!DOCTYPE svg PUBLIC "-//W3C//DTD SVG 1.1//EN" "http://www.w3.org/Graphics/SVG/1.1/DTD/svg11.dtd"><svg t="1780888778897" class="icon" viewBox="0 0 1024 1024" version="1.1" xmlns="http://www.w3.org/2000/svg" p-id="10234" xmlns:xlink="http://www.w3.org/1999/xlink" width="200" height="200"><path d="M0 0m512 0l0 0q512 0 512 512l0 0q0 512-512 512l0 0q-512 0-512-512l0 0q0-512 512-512Z" fill="#515151" opacity=".2" p-id="10235"></path><path d="M352.580267 537.856a35.345067 35.345067 0 0 1 0-51.712l230.4-219.426133a39.765333 39.765333 0 0 1 54.306133 0 35.345067 35.345067 0 0 1 0 51.712L434.039467 512l203.246933 193.570133a35.345067 35.345067 0 0 1 0 51.712 39.765333 39.765333 0 0 1-54.306133 0l-230.4-219.426133z" fill="#515151" p-id="10236"></path></svg>