<?xml version="1.0" standalone="no"?><!DOCTYPE svg PUBLIC "-//W3C//DTD SVG 1.1//EN" "http://www.w3.org/Graphics/SVG/1.1/DTD/svg11.dtd"><svg t="1780137807405" class="icon" viewBox="0 0 1024 1024" version="1.1" xmlns="http://www.w3.org/2000/svg" p-id="17083" xmlns:xlink="http://www.w3.org/1999/xlink" width="200" height="200"><path d="M281.6 798.72h-57.6c-43.52 0-79.36-35.84-79.36-79.36V281.6c0-43.52 35.84-79.36 79.36-79.36H281.6c43.52 0 79.36 35.84 79.36 79.36v437.76c0 43.52-35.84 79.36-79.36 79.36z" fill="#FBC150" p-id="17084"></path><path d="M195.84 346.88h113.92v244.48h-113.92z" fill="#FFFFFF" p-id="17085"></path><path d="M302.08 686.08c5.12 33.28-23.04 61.44-56.32 56.32-20.48-3.84-38.4-20.48-40.96-40.96-5.12-33.28 23.04-61.44 56.32-56.32 20.48 2.56 38.4 20.48 40.96 40.96z" fill="#F1AB2E" p-id="17086"></path><path d="M288 687.36c5.12 25.6-16.64 46.08-42.24 42.24-14.08-2.56-25.6-14.08-28.16-28.16-5.12-25.6 16.64-46.08 42.24-42.24 14.08 2.56 25.6 14.08 28.16 28.16z" fill="#CB840F" p-id="17087"></path><path d="M168.96 798.72h167.68c14.08 0 24.32-11.52 24.32-24.32V226.56c0-5.12-1.28-8.96-3.84-12.8L156.16 794.88c3.84 2.56 8.96 3.84 12.8 3.84z" fill="#FBC150" p-id="17088"></path><path d="M520.96 798.72h-57.6c-43.52 0-79.36-35.84-79.36-79.36V281.6c0-43.52 35.84-79.36 79.36-79.36h57.6c43.52 0 79.36 35.84 79.36 79.36v437.76c0 43.52-35.84 79.36-79.36 79.36z" fill="#EA4646" p-id="17089"></path><path d="M433.92 346.88h113.92v244.48h-113.92z" fill="#FFFFFF" p-id="17090"></path><path d="M540.16 686.08c5.12 33.28-23.04 61.44-56.32 56.32-20.48-3.84-38.4-20.48-40.96-40.96-5.12-33.28 23.04-61.44 56.32-56.32 21.76 2.56 38.4 20.48 40.96 40.96z" fill="#C93C3C" p-id="17091"></path><path d="M526.08 687.36c5.12 25.6-16.64 46.08-42.24 42.24-14.08-2.56-25.6-14.08-28.16-28.16-5.12-25.6 16.64-46.08 42.24-42.24 14.08 2.56 25.6 14.08 28.16 28.16z" fill="#9E2727" p-id="17092"></path><path d="M408.32 798.72H576c14.08 0 24.32-11.52 24.32-24.32V226.56c0-5.12-1.28-8.96-3.84-12.8L394.24 794.88c3.84 2.56 8.96 3.84 14.08 3.84z" fill="#EA4646" p-id="17093"></path><path d="M810.24 788.48l-57.6 7.68c-43.52 5.12-83.2-25.6-88.32-69.12l-56.32-433.92c-5.12-43.52 25.6-83.2 69.12-88.32l57.6-7.68c43.52-5.12 83.2 25.6 88.32 69.12l56.32 433.92c5.12 43.52-25.6 83.2-69.12 88.32z" fill="#8CDBE6" p-id="17094"></path><path d="M667.136 351.36l112.9984-14.5152 31.1552 242.496-112.9984 14.5152z" fill="#FFFFFF" p-id="17095"></path><path d="M815.36 674.56c8.96 32-15.36 64-48.64 64-21.76 0-39.68-15.36-46.08-35.84-8.96-32 15.36-64 48.64-64 21.76 0 40.96 15.36 46.08 35.84z" fill="#6CC2CA" p-id="17096"></path><path d="M801.28 677.12c7.68 24.32-10.24 48.64-35.84 47.36-14.08-1.28-26.88-10.24-30.72-24.32-7.68-24.32 10.24-48.64 35.84-47.36 14.08 0 26.88 10.24 30.72 24.32z" fill="#577E8F" p-id="17097"></path><path d="M698.88 802.56l166.4-21.76c12.8-1.28 23.04-14.08 21.76-26.88l-70.4-542.72c0-5.12-2.56-8.96-5.12-12.8l-125.44 601.6c2.56 2.56 7.68 3.84 12.8 2.56z" fill="#8CDBE6" p-id="17098"></path><path d="M60.16 797.44H972.8v44.8H60.16z" fill="#D6D6D6" p-id="17099"></path></svg>