<?xml version="1.0" standalone="no"?><!DOCTYPE svg PUBLIC "-//W3C//DTD SVG 1.1//EN" "http://www.w3.org/Graphics/SVG/1.1/DTD/svg11.dtd"><svg t="1780119759645" class="icon" viewBox="0 0 1068 1024" version="1.1" xmlns="http://www.w3.org/2000/svg" p-id="1843" xmlns:xlink="http://www.w3.org/1999/xlink" width="208.59375" height="200"><path d="M186.666667 192c-41.253333 0-74.666667 33.6-74.666667 74.666667v522.666666c0 41.066667 33.413333 74.666667 74.666667 74.666667h522.666666c41.253333 0 74.666667-33.6 74.666667-74.666667V266.666667c0-41.066667-33.413333-74.666667-74.666667-74.666667H186.666667z" fill="#BDC3C7" p-id="1844"></path><path d="M186.666667 154.666667a74.666667 74.666667 0 0 0-74.666667 74.666666v522.666667a74.666667 74.666667 0 0 0 74.666667 74.666667h522.666666a74.666667 74.666667 0 0 0 74.666667-74.666667V229.333333a74.666667 74.666667 0 0 0-74.666667-74.666666H186.666667z" fill="#ECF0F1" p-id="1845"></path><path d="M186.666667 154.666667a74.666667 74.666667 0 0 0-74.666667 74.666666v149.333334h672V229.333333a74.666667 74.666667 0 0 0-74.666667-74.666666H186.666667z" fill="#E74C3C" p-id="1846"></path><path d="M280 248a56 56 0 1 1-112 0 56 56 0 1 1 112 0z" fill="#C0392B" p-id="1847"></path><path d="M224 80a37.333333 37.333333 0 0 0-37.333333 37.333333v112a37.333333 37.333333 0 1 0 74.666666 0V117.333333a37.333333 37.333333 0 0 0-37.333333-37.333333z" fill="#BDC3C7" p-id="1848"></path><path d="M728 248a56 56 0 1 1-112 0 56 56 0 1 1 112 0z" fill="#C0392B" p-id="1849"></path><path d="M672 80c-20.608 0-37.333333 14.933333-37.333333 37.333333v112c0 18.666667 16.725333 37.333333 37.333333 37.333334s37.333333-18.666667 37.333333-37.333334V117.333333c0-22.4-16.725333-37.333333-37.333333-37.333333zM186.666667 453.333333v74.666667h74.666666v-74.666667H186.666667z m112 0v74.666667h74.666666v-74.666667H298.666667z m112 0v74.666667h74.666666v-74.666667h-74.666666z m112 0v74.666667h74.666666v-74.666667h-74.666666z m112 0v74.666667h74.666666v-74.666667h-74.666666zM186.666667 565.333333v74.666667h74.666666v-74.666667H186.666667z m112 0v74.666667h74.666666v-74.666667H298.666667z m112 0v74.666667h74.666666v-74.666667h-74.666666z m112 0v74.666667h74.666666v-74.666667h-74.666666z m112 0v74.666667h74.666666v-74.666667h-74.666666zM186.666667 677.333333v74.666667h74.666666v-74.666667H186.666667z m112 0v74.666667h74.666666v-74.666667H298.666667z m112 0v74.666667h74.666666v-74.666667h-74.666666z m112 0v74.666667h74.666666v-74.666667h-74.666666z m112 0v74.666667h74.666666v-74.666667h-74.666666z" fill="#BDC3C7" p-id="1850"></path><path d="M875.466667 735.125333a184.8 184.8 0 1 1-369.6 0 184.8 184.8 0 1 1 369.6 0z" fill="#34495E" p-id="1851"></path><path d="M690.666667 565.333333a18.666667 18.666667 0 0 0-18.666667 18.666667v149.333333a18.666667 18.666667 0 0 0 18.666667 18.666667h112a18.666667 18.666667 0 0 0 0-37.333333H709.333333v-130.666667a18.666667 18.666667 0 0 0-18.666666-18.666667z" fill="#BDC3C7" p-id="1852"></path><path d="M690.666667 528c-113.418667 0-205.333333 89.6-205.333334 205.333333 0 112 91.914667 205.333333 205.333334 205.333334s205.333333-93.333333 205.333333-205.333334c0-115.733333-91.914667-205.333333-205.333333-205.333333z m0 37.333333c92.773333 0 168 74.666667 168 168 0 89.6-75.226667 168-168 168S522.666667 822.933333 522.666667 733.333333c0-93.333333 75.226667-168 168-168z" fill="#7F8C8D" p-id="1853"></path><path d="M709.333333 733.333333a18.666667 18.666667 0 1 1-37.333333 0 18.666667 18.666667 0 0 1 37.333333 0z" fill="#95A5A6" p-id="1854"></path></svg>