<?xml version="1.0" standalone="no"?><!DOCTYPE svg PUBLIC "-//W3C//DTD SVG 1.1//EN" "http://www.w3.org/Graphics/SVG/1.1/DTD/svg11.dtd"><svg t="1779953964893" class="icon" viewBox="0 0 1097 1024" version="1.1" xmlns="http://www.w3.org/2000/svg" p-id="25113" xmlns:xlink="http://www.w3.org/1999/xlink" width="214.2578125" height="200"><path d="M129.206857 512c0-85.321143 24.393143-163.364571 65.828572-231.606857C124.342857 321.828571 68.278857 387.657143 36.571429 463.250286 17.078857 509.549714 4.864 560.749714 4.864 614.4c0 97.536 36.571429 185.307429 97.536 253.549714 2.450286 2.450286 2.450286 4.900571 4.864 4.900572H109.714286c24.393143 26.806857 51.2 48.749714 82.907428 65.828571H114.578286c-17.042286 0-31.670857 12.178286-31.670857 31.670857 0 17.078857 12.178286 26.843429 31.670857 26.843429H394.971429c58.514286 0 112.164571-12.214857 163.364571-36.571429C319.378286 950.857143 129.206857 753.371429 129.206857 512z" fill="#FE9791" p-id="25114"></path><path d="M970.349714 872.850286h-87.771428c36.571429-21.942857 68.278857-48.786286 95.085714-78.043429 0 0 2.450286 0 2.450286-2.413714 2.450286-2.450286 2.450286-4.900571 4.864-7.314286 70.729143-78.043429 112.164571-182.857143 112.164571-295.021714 0-63.378286-12.178286-121.892571-36.571428-177.993143-68.278857-160.914286-231.606857-277.942857-416.914286-277.942857-248.685714 0-458.349714 199.936-458.349714 453.485714 0 251.136 204.8 458.386286 458.349714 458.386286h326.692571c24.393143 0 36.571429-14.628571 36.571429-31.707429 0-26.806857-19.492571-41.435429-36.571429-41.435428zM748.507429 629.028571c-21.942857 39.021714-63.414857 58.514286-109.714286 63.378286-46.336 0-85.357714-21.942857-109.714286-58.514286-7.314286-12.178286-7.314286-34.121143 7.314286-41.435428 12.178286-7.314286 34.121143-7.314286 41.435428 7.314286 12.178286 21.942857 39.021714 29.257143 58.514286 29.257142 24.393143 0 46.336-12.178286 58.514286-34.121142 7.314286-12.214857 29.257143-17.078857 41.435428-7.314286 14.628571 7.314286 19.529143 29.257143 12.214858 41.435428z" fill="#FE2E22" p-id="25115"></path></svg>