<?xml version="1.0" standalone="no"?><!DOCTYPE svg PUBLIC "-//W3C//DTD SVG 1.1//EN" "http://www.w3.org/Graphics/SVG/1.1/DTD/svg11.dtd"><svg t="1779939961947" class="icon" viewBox="0 0 1024 1024" version="1.1" xmlns="http://www.w3.org/2000/svg" p-id="21201" xmlns:xlink="http://www.w3.org/1999/xlink" width="200" height="200"><path d="M868.1984 473.3952l-282.7264-217.8048a113.2544 113.2544 0 0 0-139.3152 0.8704L171.52 473.3952a113.152 113.152 0 0 0-43.0592 88.832v232.3968a113.2544 113.2544 0 0 0 113.2544 113.2032h557.3632a113.2032 113.2032 0 0 0 113.2032-113.2032V563.2a113.2032 113.2032 0 0 0-44.0832-89.8048z" fill="#FF5F5F" p-id="21202"></path><path d="M607.0272 922.5216a15.36 15.36 0 0 1-15.36-15.36v-195.7888a31.0784 31.0784 0 0 0-31.0272-30.976h-107.52a31.0272 31.0272 0 0 0-30.72 30.976v190.1056a15.36 15.36 0 0 1-30.72 0v-190.1056a61.7984 61.7984 0 0 1 61.44-61.44h107.52a61.7984 61.7984 0 0 1 61.7472 61.44v195.7888a15.36 15.36 0 0 1-15.36 15.36z" fill="#FFFFFF" p-id="21203"></path><path d="M799.0784 923.1872H241.7152a128.7168 128.7168 0 0 1-128.6144-128.5632v-232.3968a128 128 0 0 1 48.896-100.9152l274.6368-216.9344a128.512 128.512 0 0 1 158.208-0.9728l282.7264 217.8048a129.3312 129.3312 0 0 1 50.0736 101.888v231.5264a128.6656 128.6656 0 0 1-128.5632 128.5632z m-282.7264-675.84A97.5872 97.5872 0 0 0 455.68 268.4928L181.0432 485.4272a97.28 97.28 0 0 0-37.2224 76.8v232.3968a97.9968 97.9968 0 0 0 97.8944 97.8432h557.3632a97.9456 97.9456 0 0 0 97.8432-97.8432V563.2a98.5088 98.5088 0 0 0-38.144-77.568L576.1024 267.776a97.6384 97.6384 0 0 0-59.7504-20.3776z" fill="#424242" p-id="21204"></path><path d="M100.1472 419.2256a15.36 15.36 0 0 1-9.3184-27.5968L437.248 128c43.008-33.28 120.9344-24.7296 159.4368 5.12l337.5616 240.64a15.36 15.36 0 1 1-17.7664 24.9856l-337.92-241.1008-0.4608-0.4096c-31.7952-24.6784-93.44-27.2384-122.1632-5.12L109.4144 416.1024a15.36 15.36 0 0 1-9.2672 3.1232z" fill="#424242" p-id="21205"></path></svg>