<?xml version="1.0" standalone="no"?><!DOCTYPE svg PUBLIC "-//W3C//DTD SVG 1.1//EN" "http://www.w3.org/Graphics/SVG/1.1/DTD/svg11.dtd"><svg t="1780024020359" class="icon" viewBox="0 0 1024 1024" version="1.1" xmlns="http://www.w3.org/2000/svg" p-id="68293" xmlns:xlink="http://www.w3.org/1999/xlink" width="200" height="200"><path d="M627.924528 966.037736H425.056604s-304.301887-111.09434-304.301887-347.773585C120.754717 241.509434 623.09434 67.622642 623.09434 67.622642c-19.320755 86.943396 0 178.716981 48.301886 251.169811 28.981132-19.320755 33.811321-62.792453 101.433963-101.433962 0 198.037736 101.433962 207.698113 101.433962 449.207547 4.830189 149.735849-106.264151 251.169811-246.339623 299.471698z" fill="#FF3F38" p-id="68294"></path><path d="M627.924528 966.037736s101.433962-67.622642 101.433963-149.735849c0-101.433962-62.792453-130.415094-101.433963-251.169812-33.811321 43.471698-48.301887 96.603774-48.301886 149.73585 0 0-144.90566-24.150943-48.301887-299.471699 0 0-251.169811 77.283019-251.169812 299.471699-4.830189 106.264151 53.132075 198.037736 144.905661 251.169811h202.867924z" fill="#FFE67B" p-id="68295"></path></svg>