<?xml version="1.0" standalone="no"?><!DOCTYPE svg PUBLIC "-//W3C//DTD SVG 1.1//EN" "http://www.w3.org/Graphics/SVG/1.1/DTD/svg11.dtd"><svg t="1780629873533" class="icon" viewBox="0 0 1024 1024" version="1.1" xmlns="http://www.w3.org/2000/svg" p-id="20403" xmlns:xlink="http://www.w3.org/1999/xlink" width="200" height="200"><path d="M163.84 860.16c-34.816 0-61.44-28.672-61.44-61.44V225.28c0-34.816 26.624-61.44 61.44-61.44h409.6c34.816 0 61.44 26.624 61.44 61.44v573.44c0 32.768-26.624 61.44-61.44 61.44H163.84z m0-655.36c-12.288 0-20.48 10.24-20.48 20.48v573.44c0 10.24 10.24 20.48 20.48 20.48h409.6c10.24 0 20.48-10.24 20.48-20.48V225.28c0-10.24-10.24-20.48-20.48-20.48H163.84z" fill="#FF622B" p-id="20404"></path><path d="M245.76 327.68h245.76c12.288 0 20.48 8.192 20.48 20.48s-8.192 20.48-20.48 20.48H245.76c-12.288 0-20.48-8.192-20.48-20.48s8.192-20.48 20.48-20.48zM245.76 491.52h245.76c12.288 0 20.48 8.192 20.48 20.48s-8.192 20.48-20.48 20.48H245.76c-12.288 0-20.48-8.192-20.48-20.48s8.192-20.48 20.48-20.48zM245.76 655.36h245.76c12.288 0 20.48 8.192 20.48 20.48s-8.192 20.48-20.48 20.48H245.76c-12.288 0-20.48-8.192-20.48-20.48s8.192-20.48 20.48-20.48z" fill="#FF622B" p-id="20405"></path><path d="M778.24 204.8h61.44c22.528 0 40.96 18.432 40.96 40.96v471.04c0 34.816-63.488 122.88-63.488 122.88S737.28 751.616 737.28 716.8V245.76c0-22.528 18.432-40.96 40.96-40.96z" fill="#FFD8C5" p-id="20406"></path><path d="M817.152 860.16c-6.144 0-10.24-2.048-14.336-6.144-20.48-22.528-86.016-96.256-86.016-137.216V245.76c0-34.816 26.624-61.44 61.44-61.44h61.44c34.816 0 61.44 26.624 61.44 61.44v471.04c0 38.912-55.296 118.784-67.584 135.168-2.048 4.096-8.192 8.192-16.384 8.192 2.048 0 0 0 0 0zM778.24 225.28c-12.288 0-20.48 10.24-20.48 20.48v471.04c0 14.336 26.624 53.248 57.344 90.112C839.68 770.048 860.16 731.136 860.16 716.8V245.76c0-10.24-10.24-20.48-20.48-20.48h-61.44z" fill="#FF622B" p-id="20407"></path><path d="M737.28 286.72h143.36c12.288 0 20.48 8.192 20.48 20.48s-8.192 20.48-20.48 20.48h-143.36c-12.288 0-20.48-8.192-20.48-20.48s8.192-20.48 20.48-20.48z" fill="#FF622B" p-id="20408"></path></svg>