<?xml version="1.0" standalone="no"?><!DOCTYPE svg PUBLIC "-//W3C//DTD SVG 1.1//EN" "http://www.w3.org/Graphics/SVG/1.1/DTD/svg11.dtd"><svg t="1779953709182" class="icon" viewBox="0 0 1024 1024" version="1.1" xmlns="http://www.w3.org/2000/svg" p-id="11021" xmlns:xlink="http://www.w3.org/1999/xlink" width="200" height="200"><path d="M81.6 294.5v458.9c0 16.3 13.2 29.5 29.5 29.6h258.4v92.4L533.6 783H792c16.4 0 29.6-13.3 29.6-29.6V294.5c0-16.4-13.3-29.6-29.6-29.6H112c-8-0.2-15.7 2.8-21.4 8.4-5.7 5.6-9 13.3-9 21.2z m0 0" fill="#FFDEAD" p-id="11022"></path><path d="M792 264.9H112c-16.3 0.1-29.5 13.3-29.5 29.6v41c0-16.3 13.2-29.5 29.5-29.6h680c7.9 0 15.4 3.1 21 8.7s8.7 13.1 8.7 21v-41c0-16.4-13.3-29.7-29.7-29.7z m0 0" fill="#FFF3DB" p-id="11023"></path><path d="M533.6 783.1H792c16.4 0 29.6-13.3 29.6-29.6V367.1s-61 401.1-740 321.5v64.9c0 16.3 13.2 29.5 29.5 29.6h258.6v92.4l163.9-92.4z m0 0" fill="#F2C182" p-id="11024"></path><path d="M597.8 642.4l104.1-35.9-134.6-77.8 30.5 113.7z m278.8-493.8c-14.4-8.4-31.6-10.7-47.8-6.4-16.1 4.3-29.9 14.9-38.2 29.4l-20.4 34.9 109 63 20.4-34.9c17.3-30.1 7-68.5-23-86z m0 0" fill="#69BAF9" p-id="11025"></path><path d="M757.5 199.5L892 277.1 702 606.4l-134.5-77.7 190-329.2z m0 0" fill="#F7FBFF" p-id="11026"></path><path d="M757.3 199.5l-5.4 9.4 60.5 34.9c16.6 9.6 22.3 30.9 12.7 47.6L682.2 539c-4.6 8.1-12.2 14-21.2 16.4-9 2.4-18.5 1.2-26.6-3.5L574.1 517l-6.8 11.7L658 581l43.9 25.6L892 277.1l-134.7-77.6z m0 0" fill="#D8E3F0" p-id="11027"></path><path d="M595.2 632.5l2.6 9.9 104.1-35.9L656 580l-60.8 52.5z m281.4-483.9c-1 0-2.3-0.9-3.3-1.6 9.3 18.5 8.8 40.4-1.2 58.6l-20.4 34.9-75.3-43.4-5.2 8.9 109 62.9 20.4-34.9c16.7-30.2 6-68.3-24-85.4z m0 0" fill="#599ED4" p-id="11028"></path><path d="M237 423.1h234c6.2 0 12-3.3 15.1-8.7 3.1-5.4 3.1-12 0-17.4-3.1-5.4-8.9-8.7-15.1-8.7H237c-6.2 0-12 3.3-15.1 8.7-3.1 5.4-3.1 12 0 17.4 3.1 5.3 8.9 8.7 15.1 8.7z m0 118.4h234c9.6 0 17.4-7.8 17.4-17.4s-7.8-17.4-17.4-17.4H237c-9.6 0-17.4 7.8-17.4 17.4s7.8 17.4 17.4 17.4z m0 0" fill="#3D3D63" p-id="11029"></path><path d="M945.7 358.7c25.1-43.5 14.8-98.7-24.2-130.3 13.2-39.2-5.5-82-43.3-98.9-37.7-16.9-82.1-2.5-102.7 33.4l-11.9 20.6c-7.9-3.1-16.9 0-21.3 7.3l-32.8 56.7H111.1c-25.9 0.2-46.8 21.2-46.9 47.1v458.9c0 25.9 21 47 46.9 47.1h241.2v75c-0.1 6.2 3.2 12 8.5 15.2 2.7 1.5 5.8 2.3 8.9 2.3 3 0 5.9-0.8 8.5-2.3l160.1-90.1H792c12.5 0 24.5-5 33.3-13.8 8.8-8.8 13.8-20.8 13.8-33.3V403.7L907 285.8c4.1-7.4 2.2-16.7-4.4-22l1.9-3.5c21.5 21.4 25.9 54.7 10.6 80.9l-54.2 94c-7.7 13.3-9.8 29.2-5.8 44.1 4 14.9 13.7 27.6 27.1 35.3 4.1 2.6 9.1 3.4 13.8 2.2 4.7-1.2 8.7-4.4 11-8.6 4.5-8.5 1.3-19-7.1-23.5-11-6.5-14.8-20.6-8.5-31.7l54.3-94.3zM804.3 753.5c0 6.7-5.5 12.2-12.2 12.2H533.6c-3 0-5.9 0.8-8.5 2.3l-137.9 77.8v-62.6c0-4.6-1.8-9.1-5.1-12.3-3.3-3.3-7.7-5.1-12.3-5.1H111.1c-6.7-0.1-12-5.5-12-12.2V294.5c0-6.7 5.4-12.1 12-12.2h578.2l-137 237.2c-2.3 4-2.9 8.8-1.7 13.3l25.1 92.2H237c-6.2 0-12 3.3-15.1 8.7-3.1 5.4-3.1 12 0 17.4 3.1 5.4 8.9 8.7 15.1 8.7h360.6c2 0.3 4 0.3 5.9 0l104.6-36.1c4-1.3 7.3-4.1 9.4-7.7l87.2-151.2-0.4 288.7zM595 564.8l65.2 37.7-50.4 17.4-14.8-55.1z m211.3-174.4v1.4L695.6 582.6 591 522.3l172.8-299.2 104.6 60.3-62.1 107z m78.2-164.7l-12.4 20.2-78.6-45.3 11.5-20.2c8-14.3 23.1-23.3 39.5-23.3 16.4-0.1 31.6 8.7 39.7 23 8.1 14.3 8 31.8-0.5 45.9l0.8-0.3z m0 0" fill="#3D3D63" p-id="11030"></path></svg>