<?xml version="1.0" standalone="no"?><!DOCTYPE svg PUBLIC "-//W3C//DTD SVG 1.1//EN" "http://www.w3.org/Graphics/SVG/1.1/DTD/svg11.dtd"><svg t="1780023626928" class="icon" viewBox="0 0 1024 1024" version="1.1" xmlns="http://www.w3.org/2000/svg" p-id="56521" xmlns:xlink="http://www.w3.org/1999/xlink" width="200" height="200"><path d="M449.575385 496.049231a10.633846 10.633846 0 0 1-10.633847 10.436923h-33.870769c-28.16 0-65.772308 0-78.769231 1.969231A406.843077 406.843077 0 0 0 256 533.070769a10.633846 10.633846 0 0 1-4.332308 0.984616 11.027692 11.027692 0 0 1-9.846154-6.498462 10.830769 10.830769 0 0 1 5.513847-14.178461 435.987692 435.987692 0 0 1 76.8-26.19077c23.04-2.953846 111.458462-2.166154 115.396923-2.166154a11.027692 11.027692 0 0 1 10.043077 11.027693z" fill="#FDF2D2" p-id="56522"></path><path d="M449.575385 587.421538a10.830769 10.830769 0 0 1-10.633847 10.83077c-1.181538 0-90.781538-0.984615-112.64 1.772307A390.498462 390.498462 0 0 0 256 624.64a10.633846 10.633846 0 0 1-8.861538-19.692308 397.784615 397.784615 0 0 1 76.8-26.387692c23.236923-2.756923 111.655385-1.969231 115.593846-1.969231a10.633846 10.633846 0 0 1 10.043077 10.830769z" fill="#FDF2D2" p-id="56523"></path><path d="M241.624615 435.790769a10.436923 10.436923 0 0 1 5.12-13.784615 407.433846 407.433846 0 0 1 76.8-26.584616c23.04-2.756923 111.458462-1.969231 115.396923-1.772307a10.436923 10.436923 0 0 1 10.436924 10.633846 10.633846 10.633846 0 0 1-10.633847 10.633846c-0.984615 0-90.781538 0-112.64 1.772308A358.006154 358.006154 0 0 0 256 441.501538a10.633846 10.633846 0 0 1-4.332308 0 10.24 10.24 0 0 1-10.043077-5.710769z" fill="#FDF2D2" p-id="56524"></path><path d="M806.203077 616.96v30.72h-130.56a14.966154 14.966154 0 0 1-15.36-14.966154 15.36 15.36 0 0 1 15.163077-15.556923h130.756923z" fill="#FDF2D2" p-id="56525"></path><path d="M724.676923 804.233846l42.732308 10.633846a43.323077 43.323077 0 0 1-8.664616-0.984615z" fill="#FDF2D2" p-id="56526"></path><path d="M768 527.556923a10.436923 10.436923 0 0 1-9.846154 6.301539 8.073846 8.073846 0 0 1-4.332308 0 378.486154 378.486154 0 0 0-70.892307-24.812308c-21.661538-2.56-111.655385-1.772308-112.443077-1.772308a10.830769 10.830769 0 0 1-10.830769-10.633846 10.830769 10.830769 0 0 1 10.830769-10.830769c3.938462 0 92.16 0 115.2 1.969231a442.289231 442.289231 0 0 1 76.8 26.387692 11.027692 11.027692 0 0 1 5.710769 13.981538z" fill="#FDF2D2" p-id="56527"></path><path d="M558.670769 404.48a10.633846 10.633846 0 0 1 10.436923-10.633846c3.938462 0 92.356923 0 115.2 1.772308a407.433846 407.433846 0 0 1 76.8 26.584615 10.436923 10.436923 0 0 1 5.71077 13.587692 10.633846 10.633846 0 0 1-9.846154 6.498462 9.649231 9.649231 0 0 1-4.135385 0 368.836923 368.836923 0 0 0-70.892308-24.615385c-21.858462-2.953846-111.655385-1.772308-112.443077-1.772308a10.830769 10.830769 0 0 1-10.830769-11.421538z" fill="#FDF2D2" p-id="56528"></path><path d="M489.944615 298.929231v22.055384-22.055384z m236.307693 505.304615l34.067692 9.649231a41.353846 41.353846 0 0 0 8.467692 0.984615z" fill="#886031" p-id="56529"></path><path d="M1012.972308 647.68h-171.716923v-30.523077H902.892308a37.415385 37.415385 0 0 0 0-74.633846h-61.636923V354.461538a43.913846 43.913846 0 0 0-31.507693-42.141538 1237.858462 1237.858462 0 0 0-137.846154-34.658462 582.104615 582.104615 0 0 0-66.756923-1.96923c-39.384615 0-82.116923 1.181538-102.203077 2.166154h-1.575384c-19.692308 0-62.818462-2.166154-102.203077-2.166154a582.104615 582.104615 0 0 0-66.756923 2.56 1237.858462 1237.858462 0 0 0-137.846154 34.658461A43.913846 43.913846 0 0 0 163.052308 354.461538v445.44a43.52 43.52 0 0 0 19.692307 36.627693h-126.030769a15.36 15.36 0 0 1 0-30.523077h105.944616v-22.055385H56.713846a37.218462 37.218462 0 0 0 0 74.436923h271.36a15.163077 15.163077 0 0 1 14.769231 15.753846 15.36 15.36 0 0 1-14.769231 14.769231H99.84a11.027692 11.027692 0 1 0 0 22.055385h227.446154a37.415385 37.415385 0 0 0 0-74.830769h-88.024616a866.461538 866.461538 0 0 1 97.083077-22.252308 556.701538 556.701538 0 0 1 65.378462-2.56c32.689231 0 67.741538 0.984615 89.6 1.772308H513.181538c21.858462 0 57.107692-1.772308 89.6-1.772308a561.624615 561.624615 0 0 1 65.575385 2.56 1096.467692 1096.467692 0 0 1 118.153846 27.963077 43.126154 43.126154 0 0 0 53.563077-29.341539 41.353846 41.353846 0 0 0 1.772308-12.996923V669.538462h171.716923a11.027692 11.027692 0 0 0 0-22.055385z m-171.716923-83.495385h61.636923a15.163077 15.163077 0 1 1 0 30.326154h-61.636923zM492.307692 321.181538v470.843077c-22.252308 0-57.107692-1.772308-89.6-1.772307s-51.396923 0-65.181538 2.166154H334.769231a953.501538 953.501538 0 0 0-102.4 23.827692l-18.510769 5.12a32.886154 32.886154 0 0 1-6.104616 0.984615 22.843077 22.843077 0 0 1-22.449231-22.843077V354.461538a23.04 23.04 0 0 1 16.147693-21.858461A1185.28 1185.28 0 0 1 334.769231 299.52a577.575385 577.575385 0 0 1 64-2.363077c33.476923 0 69.907692 0 91.963077 1.772308z m327.68 326.498462h-143.556923a14.966154 14.966154 0 0 1-15.36-14.966154 15.163077 15.163077 0 0 1 15.163077-15.36h143.753846z m0-52.972308h-143.556923a37.612308 37.612308 0 0 0-37.415384 37.612308 37.218462 37.218462 0 0 0 37.415384 37.218462h143.556923v130.363076a22.646154 22.646154 0 0 1-22.252307 22.646154 30.326154 30.326154 0 0 1-5.907693 0L768 815.261538a32.886154 32.886154 0 0 1-8.664615-1.181538l-33.673847-9.452308a59.076923 59.076923 0 0 0-7.876923-2.166154 418.264615 418.264615 0 0 0-46.276923-9.255384 606.326154 606.326154 0 0 0-68.135384-2.56c-32.295385 0-67.347692 0-89.6 1.575384v-492.307692c22.252308 0 59.076923-1.772308 92.16-1.772308a579.347692 579.347692 0 0 1 64 2.363077 1169.329231 1169.329231 0 0 1 134.498461 34.067693 22.252308 22.252308 0 0 1 16.344616 21.661538z" fill="#886031" p-id="56530"></path><path d="M342.843077 321.378462a1124.627692 1124.627692 0 0 0-118.153846 30.326153A39.384615 39.384615 0 0 0 196.923077 388.923077v389.316923a39.384615 39.384615 0 0 0 33.673846 38.4A990.129231 990.129231 0 0 1 334.769231 792.812308h2.953846c13.784615-1.181538 35.446154-2.166154 65.575385-2.166154s67.938462 1.181538 90.190769 1.772308V320.984615a1466.88 1466.88 0 0 0-150.646154 0.393847z m-95.704615 100.627692a407.433846 407.433846 0 0 1 76.8-26.584616c23.04-2.756923 111.458462-1.969231 115.396923-1.772307a10.436923 10.436923 0 0 1 10.436923 10.633846 10.633846 10.633846 0 0 1-10.633846 10.633846c-1.181538 0-90.781538 0-112.64 1.772308A358.006154 358.006154 0 0 0 256 441.501538a10.633846 10.633846 0 0 1-8.861538-19.692307z m0 91.372308a436.578462 436.578462 0 0 1 76.8-26.387693c23.04-2.756923 111.458462-1.969231 115.396923-1.969231a10.830769 10.830769 0 0 1 10.436923 11.027693 10.633846 10.633846 0 0 1-10.633846 10.436923h-33.87077c-27.963077 0-65.772308 0-78.76923 1.969231A391.089231 391.089231 0 0 0 256 533.070769a8.073846 8.073846 0 0 1-4.332308 0 10.436923 10.436923 0 0 1-9.846154-6.301538 11.027692 11.027692 0 0 1 5.513847-14.178462z m78.76923 86.646153A395.815385 395.815385 0 0 0 256 624.64a9.846154 9.846154 0 0 1-4.135385 0.984615 10.633846 10.633846 0 0 1-4.52923-19.692307 393.846154 393.846154 0 0 1 76.8-26.387693c23.04-2.756923 111.655385-1.969231 115.396923-1.96923a10.633846 10.633846 0 0 1 10.436923 10.633846 10.830769 10.830769 0 0 1-10.633846 10.830769c-0.984615 0-90.781538-0.984615-112.64 1.575385z" fill="#FDF2D2" p-id="56531"></path><path d="M807.384615 387.150769a38.006154 38.006154 0 0 0-26.978461-37.218461 1063.384615 1063.384615 0 0 0-118.153846-30.326154 1405.243077 1405.243077 0 0 0-149.661539 0v472.615384c22.449231 0 57.895385-1.772308 90.387693-1.772307a664.221538 664.221538 0 0 1 68.52923 2.56 466.313846 466.313846 0 0 1 46.67077 9.452307l7.876923 1.969231c12.406154 2.953846 26.781538 6.695385 42.535384 10.830769a38.006154 38.006154 0 0 0 39.384616-37.415384V669.538462h-131.938462a37.415385 37.415385 0 0 1 0-74.83077H807.384615z m-39.384615 140.406154a10.830769 10.830769 0 0 1-9.846154 6.498462 11.618462 11.618462 0 0 1-4.332308-0.984616 374.153846 374.153846 0 0 0-70.892307-24.812307c-21.661538-2.56-111.458462-1.772308-112.443077-1.772308a10.633846 10.633846 0 0 1-10.633846-10.633846 10.830769 10.830769 0 0 1 10.633846-10.83077c3.938462 0 92.356923 0 115.2 2.166154a420.430769 420.430769 0 0 1 76.8 26.19077 10.633846 10.633846 0 0 1 5.710769 13.981538z m0-91.766154a10.830769 10.830769 0 0 1-9.846154 6.498462 11.224615 11.224615 0 0 1-4.332308 0 374.153846 374.153846 0 0 0-70.892307-24.812308c-21.661538-2.756923-111.458462-1.575385-112.443077-1.575385a10.830769 10.830769 0 0 1-10.633846-10.830769 10.633846 10.633846 0 0 1 10.436923-10.633846c3.938462 0 92.356923 0 115.2 1.772308a402.510769 402.510769 0 0 1 76.8 26.584615 10.24 10.24 0 0 1 5.907692 13.587692z" fill="#FDF2D2" p-id="56532"></path><path d="M449.575385 404.48a10.633846 10.633846 0 0 1-10.633847 10.633846c-1.181538 0-90.781538 0-112.64 1.772308A358.006154 358.006154 0 0 0 256 441.501538a10.633846 10.633846 0 0 1-8.861538-19.692307 412.16 412.16 0 0 1 76.8-26.584616c23.236923-2.756923 111.655385-1.969231 115.593846-1.772307a10.633846 10.633846 0 0 1 10.436923 10.633846z" fill="#886031" p-id="56533"></path><path d="M449.575385 496.049231a10.633846 10.633846 0 0 1-10.633847 10.436923h-33.870769c-28.16 0-65.772308 0-78.769231 1.969231A406.843077 406.843077 0 0 0 256 533.070769a10.633846 10.633846 0 0 1-4.332308 0.984616 11.027692 11.027692 0 0 1-9.846154-6.498462 10.830769 10.830769 0 0 1 5.513847-14.178461 452.923077 452.923077 0 0 1 76.8-26.387693c23.04-2.756923 111.458462-1.969231 115.396923-1.969231a11.027692 11.027692 0 0 1 10.043077 11.027693z" fill="#886031" p-id="56534"></path><path d="M449.575385 587.421538a10.830769 10.830769 0 0 1-10.633847 10.83077c-1.181538 0-90.781538-0.984615-112.64 1.772307A390.498462 390.498462 0 0 0 256 624.64a10.633846 10.633846 0 0 1-8.861538-19.692308 397.784615 397.784615 0 0 1 76.8-26.387692c23.236923-2.756923 111.655385-1.969231 115.593846-1.969231a10.633846 10.633846 0 0 1 10.043077 10.830769z" fill="#886031" p-id="56535"></path><path d="M768 435.790769a11.027692 11.027692 0 0 1-9.846154 6.498462 10.633846 10.633846 0 0 1-4.332308 0 364.307692 364.307692 0 0 0-70.892307-24.615385c-21.661538-2.953846-111.655385-1.772308-112.443077-1.772308a11.224615 11.224615 0 0 1-10.830769-10.830769 10.633846 10.633846 0 0 1 9.452307-11.224615c3.938462 0 92.16 0 115.2 1.772308a407.433846 407.433846 0 0 1 76.8 26.584615 10.436923 10.436923 0 0 1 5.71077 13.587692z" fill="#886031" p-id="56536"></path><path d="M768 527.556923a10.436923 10.436923 0 0 1-9.846154 6.301539 8.073846 8.073846 0 0 1-4.332308 0 378.486154 378.486154 0 0 0-70.892307-24.812308c-21.661538-2.56-111.655385-1.772308-112.443077-1.772308a10.830769 10.830769 0 0 1-10.830769-10.633846 10.830769 10.830769 0 0 1 10.830769-10.830769c3.938462 0 92.16 0 115.2 1.969231a442.289231 442.289231 0 0 1 76.8 26.387692 11.027692 11.027692 0 0 1 5.710769 13.981538z" fill="#886031" p-id="56537"></path></svg>