<?xml version="1.0" standalone="no"?><!DOCTYPE svg PUBLIC "-//W3C//DTD SVG 1.1//EN" "http://www.w3.org/Graphics/SVG/1.1/DTD/svg11.dtd"><svg t="1780049654846" class="icon" viewBox="0 0 1024 1024" version="1.1" xmlns="http://www.w3.org/2000/svg" p-id="10840" xmlns:xlink="http://www.w3.org/1999/xlink" width="200" height="200"><path d="M137.216 512c-2.56 226.816 179.2 412.16 406.016 414.72s412.16-179.2 414.72-406.016V512c0-226.816-183.808-410.112-410.112-410.112S137.216 285.184 137.216 512z" fill="#73D36E" p-id="10841"></path><path d="M547.84 931.84c-231.424 0-419.84-188.416-419.84-419.84s188.416-419.84 419.84-419.84 419.84 188.416 419.84 419.84-188.416 419.84-419.84 419.84z m0-820.736c-221.184 0-400.896 179.712-400.896 400.896s179.712 400.896 400.896 400.896 400.896-179.712 400.896-400.896-179.712-400.896-400.896-400.896z" fill="#3D3D63" p-id="10842"></path><path d="M250.368 744.448c5.632 7.168 2.56 18.432-6.144 25.088L159.744 834.56c-8.704 6.656-20.48 6.656-26.112-0.512-5.632-7.168-2.56-18.432 6.144-25.088l83.968-64.512c9.216-7.168 20.992-7.168 26.624 0z m18.944 105.984c5.632 7.168 2.56 18.432-6.144 25.088L179.2 940.032c-8.704 6.656-20.48 6.656-26.112-0.512-5.632-7.168-2.56-18.432 6.144-25.088L243.2 849.92c9.216-7.168 20.992-6.656 26.112 0.512z m-116.224-152.064c5.632 7.168 2.56 18.432-6.144 25.088L62.976 788.48c-8.704 6.656-20.48 6.656-26.112-0.512-5.632-7.168-2.56-18.432 6.144-25.088l83.968-64.512c23.04-17.92 28.16 3.072 26.112 0z" fill="#3D3D63" p-id="10843"></path><path d="M420.352 333.824S299.008 260.096 79.36 445.44l211.456 93.184 129.536-204.8z" fill="#BED5E9" p-id="10844"></path><path d="M294.912 551.424L60.928 448l12.288-10.24c125.44-106.496 220.16-128.512 277.504-128.512 48.128 0 73.728 15.36 74.752 15.872l8.704 5.12-139.264 221.184zM98.816 442.88l188.416 82.944L405.504 337.92c-10.24-3.584-28.672-8.704-54.784-8.704-52.224 0-137.216 19.968-251.904 113.664z" fill="#3D3D63" p-id="10845"></path><path d="M681.984 674.304s39.936 136.704-196.096 300.032L450.56 746.496l231.424-72.192z" fill="#BED5E9" p-id="10846"></path><path d="M477.696 992.256l-38.912-252.928 249.344-77.312 3.072 9.728c1.536 5.632 39.424 145.408-200.192 311.296l-13.312 9.216z m-15.872-239.104l31.232 203.264c177.664-128 183.808-236.544 180.736-269.312l-211.968 66.048z" fill="#3D3D63" p-id="10847"></path><path d="M736.256 631.808c195.072-149.504 294.912-347.136 222.72-440.832S670.72 142.336 475.648 292.352c-126.976 97.28-213.504 215.04-238.592 311.296-0.512 0.512-0.512 1.024-0.512 2.048 0 3.072 120.832 41.984 129.536 169.472 0 1.536 0.512 3.072 1.536 4.096 1.024 1.536 2.56 2.56 4.608 3.072h1.536c99.328 0 235.52-52.736 362.496-150.528z" fill="#D8E3F0" p-id="10848"></path><path d="M372.736 792.064h-2.048c-4.608-0.512-8.192-3.072-11.264-6.656-2.048-2.56-3.584-6.144-3.584-9.728-4.608-68.608-44.032-121.344-117.248-157.184-7.168-3.584-12.8-6.144-12.288-13.312 0-1.536 0.512-2.56 1.024-4.096 26.624-102.4 117.248-220.672 242.176-316.416 123.904-95.232 261.12-152.064 366.592-152.064 59.392 0 104.448 18.432 131.072 52.736 75.264 98.304-25.6 302.08-224.768 455.168-123.904 95.232-261.12 152.064-366.592 152.064l-3.072-0.512z m-124.416-191.488c78.848 38.912 121.856 96.256 127.488 171.52 101.376 0 233.472-55.296 354.304-147.968 190.464-145.92 289.28-337.408 221.184-426.496-22.528-29.184-62.464-45.056-114.688-45.056-101.376 0-233.984 55.296-354.304 147.968-119.808 91.136-206.848 202.752-233.984 300.032z" fill="#3D3D63" p-id="10849"></path><path d="M635.904 690.688l-245.76-323.584c-13.312 14.336-26.112 28.672-38.4 43.52l231.936 305.664c17.92-7.68 35.328-16.384 52.224-25.6z" fill="#FFFFFF" p-id="10850"></path><path d="M580.608 729.088L338.944 410.624l5.12-6.144c12.288-15.36 25.6-30.208 38.912-44.544l8.192-8.704 260.096 342.528-10.24 5.632c-17.408 9.216-34.816 17.92-52.736 26.112l-7.68 3.584zM364.544 411.136l222.208 292.864c11.264-5.12 22.528-10.752 33.792-16.384L389.632 382.464c-8.704 9.216-16.896 18.944-25.088 28.672z" fill="#3D3D63" p-id="10851"></path><path d="M527.872 750.08L307.2 462.848c-10.24 13.312-18.944 27.648-25.6 43.52l196.096 259.072c13.824-2.048 36.864-9.728 50.176-15.36z" fill="#FFFFFF" p-id="10852"></path><path d="M473.088 775.68L269.824 507.392l2.048-5.632c7.168-16.384 16.384-31.744 27.136-45.568l8.192-10.24 236.032 307.712-11.776 5.12c-13.824 6.144-37.888 13.824-52.736 15.872l-5.632 1.024zM293.376 504.832l188.928 249.344c8.704-1.536 19.968-5.12 29.696-8.192l-204.288-266.24c-5.632 7.68-10.24 16.384-14.336 25.088z" fill="#3D3D63" p-id="10853"></path><path d="M612.864 386.048c-0.512 50.688 39.936 92.16 90.624 93.184s92.16-39.936 93.184-90.624v-2.56c-0.512-50.688-42.496-91.136-93.184-90.624-50.176 1.024-90.112 40.96-90.624 90.624z" fill="#FFC200" p-id="10854"></path><path d="M704.512 487.936c-56.32 0-101.888-45.568-101.888-101.888s45.568-101.888 101.888-101.888 101.888 45.568 101.888 101.888-45.568 101.888-101.888 101.888z m0-183.296c-45.056 0-81.408 36.352-81.408 81.408s36.352 81.408 81.408 81.408 81.408-36.352 81.408-81.408-36.352-81.408-81.408-81.408z" fill="#3D3D63" p-id="10855"></path><path d="M732.16 313.856c25.088 12.8 35.84 43.008 32.256 73.216-7.168 65.536-84.992 72.704-92.672 70.144 40.96 13.824 84.992-8.192 98.304-49.152 12.288-36.352-3.584-76.288-37.888-94.208z" fill="#FFFFFF" p-id="10856"></path><path d="M815.104 898.56c-19.968 0-36.352 16.384-36.352 36.352 0 19.968 16.384 36.352 36.352 36.352 19.968 0 36.352-16.384 36.352-36.352s-16.384-36.352-36.352-36.352z" fill="#59BD52" p-id="10857"></path><path d="M61.952 197.12c-0.512 18.944 14.848 34.816 33.28 34.816s34.816-14.848 34.816-33.28v-1.536c-0.512-18.944-15.872-33.792-34.816-33.28-17.92 0-32.768 14.848-33.28 33.28z" fill="#FFC200" p-id="10858"></path></svg>