<?xml version="1.0" standalone="no"?><!DOCTYPE svg PUBLIC "-//W3C//DTD SVG 1.1//EN" "http://www.w3.org/Graphics/SVG/1.1/DTD/svg11.dtd"><svg t="1780028690691" class="icon" viewBox="0 0 1024 1024" version="1.1" xmlns="http://www.w3.org/2000/svg" p-id="89131" xmlns:xlink="http://www.w3.org/1999/xlink" width="200" height="200"><path d="M977.005651 277.668346v-5.133781l-3.474773-3.135134a49.326104 49.326104 0 0 0-11.116662-7.694141c-0.783783-0.418018-1.58063-0.849099-2.416665-1.306305l-202.477389-113.021572-0.888288-0.496397-0.979729-0.209008c-24.819809-5.107655-40.351784-1.959459-47.366646 9.627473l-0.078378 0.117567c-6.035132 10.450446-7.759456 20.260802-5.120719 29.091429a28.464402 28.464402 0 0 0 13.846841 16.968911l175.580554 87.744556-391.186315 190.119737L122.929901 294.480501l175.39767-92.133743 0.692343-0.418018c17.543686-12.213959 21.070711-17.948641 14.304047-37.882866l-0.13063-0.404955a26.909898 26.909898 0 0 0-36.367552-17.125668l-0.195946 0.078378-214.861166 108.710763-0.770721 0.457207a22.612152 22.612152 0 0 0-6.871168 7.406754c-0.849099 1.306306-1.815765 2.756305-3.056755 4.376124l-0.587838 0.744594-0.339639 0.888288C48.117772 274.441771 45.857863 288.693567 45.857863 294.284555v490.556992l0.13063 0.640089c0.77072 3.80135 5.434232 11.247292 15.140084 16.159002l424.549363 212.130988 0.13063 0.078378c3.33108 1.841891 6.061259 3.540089 8.490987 5.042341 5.316664 3.29189 8.242789 5.107655 11.586932 5.107655 6.910357 0 10.385131 0 17.04729-3.749097l0.404955-0.222072 443.869624-224.331884 0.888288-0.444144 1.92027-1.854954c5.04234-4.807205 8.072969-7.720267 8.125221-15.858551z m-63.133756 81.4351v401.46694l-367.202541 181.576497V536.721836l358.998941-177.65758z" fill="#6D77DE" p-id="89132"></path><path d="M655.484622 208.133692c-6.596844-6.62297-16.890533-10.450446-28.28152-10.450446s-21.671612 3.80135-28.190077 10.319816l-53.558535 50.501779V40.168901c0-18.28828-5.51261-40.155838-31.795482-40.168901-9.14414 0-16.903596 3.135134-22.520711 9.01351-6.740538 7.054051-9.993239 17.778821-9.405401 31.011698v218.479633l-53.558535-50.514842c-7.485132-7.406753-21.410351-13.964408-27.628366-14.147291h-0.274324c-27.785123 0-42.781513 20.770261-42.781513 40.325657 0 11.051346 6.884231 17.883325 14.18648 25.12026l6.440088-6.531529-6.427025 6.531529 113.413464 108.344997c6.897294 6.818916 17.595938 10.215311 28.268456 10.215311s21.305846-3.396395 28.111699-10.189185l114.040491-108.423376 0.091441-0.078378c5.969817-4.963962 9.627473-13.232877 10.058554-22.677467 0.574775-10.855401-3.239638-21.475666-10.189184-28.346835z" fill="#CFE0FF" p-id="89133"></path></svg>